<?xml version="1.0" encoding="UTF-8" standalone="no"?>
<!DOCTYPE svg PUBLIC "-//W3C//DTD SVG 1.1//EN" "http://www.w3.org/Graphics/SVG/1.1/DTD/svg11.dtd">
<svg width="100%" height="100%" viewBox="0 0 91 54" version="1.1" xmlns="http://www.w3.org/2000/svg" xmlns:xlink="http://www.w3.org/1999/xlink" xml:space="preserve" xmlns:serif="http://www.serif.com/" style="fill-rule:evenodd;clip-rule:evenodd;stroke-linejoin:round;stroke-miterlimit:1.5;">
    <g id="Artboard1" transform="matrix(1,0,0,1,-6.75098,-28.6167)">
        <rect x="6.751" y="28.617" width="90.354" height="53.492" style="fill:none;"/>
        <g transform="matrix(1.03028,0,0,0.995751,-1.8063,0.954672)">
            <path d="M39.994,64.648C39.989,64.653 39.984,64.659 39.979,64.665C39.113,65.712 37.411,66.859 33.946,66.942C31.219,67.008 29.425,66.225 28.242,65.296C26.355,63.814 25.977,61.9 25.977,61.9C25.915,61.605 25.989,61.298 26.179,61.064C26.369,60.83 26.654,60.694 26.955,60.694L32.234,60.694L33.235,58.536L32.42,56.783L26.646,56.783C26.337,56.783 26.046,56.641 25.857,56.398C25.667,56.154 25.601,55.837 25.676,55.538C25.676,55.538 26.904,50.438 33.071,50.438C37.756,50.438 40.004,53.277 40.775,54.547C40.775,54.547 50.193,54.547 52.305,54.547L52.722,54.547C54.834,54.547 64.252,54.547 64.252,54.547C65.023,53.277 67.271,50.438 71.956,50.438C78.123,50.438 79.351,55.538 79.351,55.538C79.426,55.837 79.36,56.154 79.17,56.398C78.981,56.641 78.69,56.783 78.381,56.783L72.607,56.783L71.792,58.536L72.793,60.694L78.072,60.694C78.373,60.694 78.658,60.83 78.848,61.064C79.038,61.298 79.112,61.605 79.05,61.9C79.05,61.9 78.672,63.814 76.785,65.296C75.602,66.225 73.807,67.008 71.08,66.942C67.831,66.865 66.132,65.85 65.219,64.861L65.219,65.085C65.219,65.587 64.86,66.012 64.379,66.08L62.53,66.339L62.39,66.625L63.577,68.501C63.829,68.899 63.777,69.425 63.452,69.761L60.384,72.935C60.044,73.288 59.505,73.328 59.119,73.031C59.119,73.031 57.427,71.728 57.427,71.728L55.999,72.382L55.381,74.473C55.256,74.895 54.879,75.183 54.453,75.183L50.708,75.183C50.27,75.183 49.887,74.881 49.771,74.444L49.26,72.509L47.755,71.723L45.792,73.061C45.412,73.32 44.908,73.271 44.581,72.942L41.642,69.981C41.305,69.641 41.252,69.101 41.515,68.698L42.816,66.712L42.686,66.52L40.761,66.01C40.361,65.904 40.07,65.549 40.034,65.125L39.994,64.648ZM63.278,63.221L59.648,63.221C59.473,64.009 59.034,65.337 57.961,66.477C56.898,67.607 55.209,68.585 52.49,68.585C50.459,68.585 49.013,68.019 47.975,67.256C46.313,66.034 45.681,64.269 45.445,63.221L41.822,63.221L41.908,64.241L43.516,64.666C43.741,64.725 43.938,64.867 44.071,65.063L44.79,66.128C45.02,66.469 45.023,66.922 44.798,67.266L43.578,69.128L45.376,70.939L47.157,69.726C47.447,69.528 47.818,69.506 48.129,69.668L50.52,70.918C50.765,71.046 50.946,71.275 51.018,71.549L51.448,73.175L53.735,73.175L54.272,71.356C54.355,71.077 54.55,70.849 54.808,70.731L57.159,69.654C57.479,69.508 57.851,69.551 58.131,69.767L59.605,70.901L61.521,68.919L60.458,67.24C60.268,66.939 60.247,66.556 60.404,66.235L61.029,64.96C61.173,64.666 61.448,64.464 61.764,64.419C61.764,64.419 63.278,64.207 63.278,64.207L63.278,63.221ZM57.639,63.221L47.447,63.221C47.671,63.942 48.137,64.911 49.1,65.619C49.877,66.19 50.97,66.577 52.49,66.577C54.507,66.577 55.781,65.914 56.57,65.076C57.156,64.454 57.471,63.753 57.639,63.221ZM65.063,61.221C65.615,61.221 66.063,61.669 66.063,62.221C66.063,62.221 66.11,63.071 66.999,63.794C67.755,64.409 69.028,64.893 71.128,64.943C73.235,64.994 74.636,64.44 75.549,63.723C75.973,63.391 76.287,63.028 76.516,62.694L72.155,62.694C71.765,62.694 71.411,62.468 71.248,62.115L69.782,58.957C69.658,58.69 69.658,58.381 69.783,58.114L71.063,55.362C71.227,55.009 71.581,54.783 71.97,54.783C71.97,54.783 76.795,54.783 76.796,54.784C76.09,53.747 74.663,52.438 71.956,52.438C67.342,52.438 65.765,55.945 65.765,55.945C65.606,56.311 65.246,56.547 64.847,56.547L40.179,56.547C39.781,56.547 39.421,56.311 39.262,55.945C39.262,55.945 37.685,52.438 33.071,52.438C30.364,52.438 28.937,53.747 28.231,54.784C28.232,54.783 33.057,54.783 33.057,54.783C33.446,54.783 33.8,55.009 33.964,55.362L35.244,58.114C35.369,58.381 35.369,58.69 35.245,58.957L33.779,62.115C33.615,62.468 33.262,62.694 32.872,62.694L28.511,62.694C28.74,63.028 29.054,63.391 29.478,63.723C30.391,64.44 31.792,64.994 33.898,64.943C35.999,64.893 37.272,64.409 38.028,63.794C38.917,63.071 38.964,62.221 38.964,62.221C38.964,61.669 39.412,61.221 39.964,61.221L65.063,61.221Z"/>
        </g>
        <g transform="matrix(1.38548,0,0,1.38548,-2.40285,16.5982)">
            <path d="M12.674,23.574L15.586,14.843L18.353,14.843L21.355,23.574L19.034,23.574L17.819,19.757C17.626,19.122 17.438,18.446 17.257,17.73C17.075,17.014 16.893,16.27 16.711,15.498L17.171,15.498C16.996,16.272 16.826,17.018 16.661,17.736C16.497,18.454 16.322,19.127 16.137,19.757L14.971,23.574L12.674,23.574ZM14.651,21.715L14.651,20.137L19.378,20.137L19.378,21.715L14.651,21.715Z" style="fill-rule:nonzero;"/>
            <path d="M25.683,23.691C24.956,23.691 24.322,23.581 23.782,23.361C23.242,23.142 22.822,22.81 22.522,22.366C22.221,21.922 22.066,21.364 22.054,20.692L24.038,20.692C24.058,20.973 24.136,21.208 24.272,21.399C24.409,21.589 24.595,21.733 24.832,21.829C25.068,21.925 25.343,21.973 25.656,21.973C25.944,21.973 26.191,21.934 26.397,21.855C26.603,21.777 26.761,21.667 26.872,21.526C26.983,21.386 27.038,21.223 27.038,21.039C27.038,20.871 26.987,20.728 26.886,20.61C26.784,20.492 26.629,20.388 26.421,20.299C26.212,20.209 25.947,20.129 25.626,20.058L24.705,19.844C23.951,19.671 23.359,19.39 22.928,18.999C22.498,18.609 22.282,18.085 22.282,17.426C22.282,16.887 22.429,16.414 22.721,16.01C23.013,15.605 23.415,15.29 23.926,15.064C24.437,14.839 25.023,14.726 25.683,14.726C26.358,14.726 26.944,14.84 27.44,15.069C27.937,15.297 28.322,15.616 28.595,16.025C28.869,16.434 29.009,16.908 29.016,17.447L27.027,17.447C27,17.128 26.871,16.881 26.642,16.705C26.413,16.529 26.09,16.441 25.675,16.441C25.401,16.441 25.17,16.477 24.984,16.55C24.797,16.622 24.657,16.723 24.563,16.851C24.469,16.979 24.422,17.125 24.422,17.289C24.422,17.466 24.475,17.616 24.581,17.739C24.688,17.862 24.838,17.965 25.032,18.048C25.227,18.131 25.453,18.202 25.712,18.26L26.465,18.434C26.886,18.526 27.262,18.649 27.593,18.803C27.923,18.957 28.204,19.141 28.433,19.355C28.663,19.569 28.837,19.817 28.955,20.098C29.074,20.378 29.133,20.694 29.133,21.044C29.133,21.594 28.996,22.068 28.721,22.464C28.446,22.86 28.052,23.164 27.538,23.374C27.023,23.585 26.405,23.691 25.683,23.691Z" style="fill-rule:nonzero;"/>
            <path d="M32.862,23.574L32.862,14.843L35.137,14.843L37.57,18.789C37.729,19.049 37.883,19.319 38.034,19.599C38.185,19.879 38.334,20.189 38.483,20.529C38.631,20.869 38.781,21.259 38.932,21.699L38.738,21.699C38.715,21.378 38.69,21.023 38.664,20.633C38.638,20.243 38.616,19.864 38.597,19.495C38.578,19.126 38.569,18.814 38.569,18.56L38.569,14.843L40.689,14.843L40.689,23.574L38.412,23.574L36.178,19.959C35.977,19.628 35.796,19.313 35.635,19.015C35.474,18.718 35.312,18.395 35.149,18.048C34.987,17.701 34.797,17.293 34.579,16.824L34.815,16.824C34.844,17.24 34.871,17.646 34.897,18.043C34.923,18.44 34.944,18.804 34.96,19.133C34.975,19.463 34.983,19.738 34.983,19.956L34.983,23.574L32.862,23.574Z" style="fill-rule:nonzero;"/>
            <path d="M46.008,23.691C45.226,23.691 44.521,23.517 43.892,23.169C43.264,22.821 42.767,22.314 42.401,21.647C42.036,20.98 41.853,20.169 41.853,19.215C41.853,18.253 42.036,17.438 42.401,16.77C42.767,16.101 43.264,15.594 43.892,15.247C44.521,14.9 45.226,14.726 46.008,14.726C46.789,14.726 47.494,14.9 48.12,15.247C48.747,15.594 49.243,16.101 49.61,16.77C49.977,17.438 50.16,18.253 50.16,19.215C50.16,20.172 49.977,20.984 49.61,21.651C49.243,22.318 48.747,22.825 48.12,23.171C47.494,23.518 46.789,23.691 46.008,23.691ZM46.008,21.876C46.432,21.876 46.797,21.774 47.101,21.57C47.405,21.365 47.639,21.065 47.802,20.669C47.965,20.272 48.047,19.787 48.047,19.215C48.047,18.637 47.965,18.149 47.802,17.751C47.639,17.353 47.405,17.052 47.101,16.848C46.797,16.643 46.432,16.541 46.008,16.541C45.585,16.541 45.222,16.644 44.917,16.848C44.612,17.053 44.378,17.354 44.213,17.752C44.048,18.15 43.965,18.638 43.965,19.215C43.965,19.787 44.048,20.272 44.213,20.668C44.378,21.064 44.612,21.364 44.917,21.569C45.222,21.774 45.585,21.876 46.008,21.876Z" style="fill-rule:nonzero;"/>
            <path d="M51.324,23.574L51.324,14.843L54.9,14.843C55.556,14.843 56.121,14.961 56.596,15.196C57.072,15.432 57.438,15.767 57.695,16.201C57.953,16.636 58.081,17.15 58.081,17.744C58.081,18.343 57.95,18.854 57.688,19.276C57.427,19.699 57.053,20.02 56.568,20.24C56.083,20.46 55.507,20.57 54.839,20.57L52.559,20.57L52.559,18.934L54.461,18.934C54.786,18.934 55.057,18.891 55.275,18.805C55.494,18.72 55.659,18.589 55.77,18.414C55.881,18.239 55.936,18.015 55.936,17.744C55.936,17.47 55.881,17.243 55.77,17.063C55.659,16.883 55.494,16.748 55.275,16.657C55.056,16.566 54.784,16.521 54.458,16.521L53.39,16.521L53.39,23.574L51.324,23.574ZM56.117,23.574L53.99,19.584L56.205,19.584L58.386,23.574L56.117,23.574Z" style="fill-rule:nonzero;"/>
            <path d="M62.479,23.574L60.156,23.574L60.156,21.806L62.391,21.806C62.891,21.806 63.314,21.721 63.659,21.552C64.004,21.383 64.265,21.108 64.442,20.726C64.619,20.344 64.708,19.839 64.708,19.209C64.708,18.578 64.618,18.072 64.438,17.692C64.259,17.312 63.995,17.037 63.648,16.867C63.301,16.697 62.872,16.612 62.363,16.612L60.118,16.612L60.118,14.843L62.479,14.843C63.366,14.843 64.13,15.018 64.771,15.367C65.411,15.716 65.906,16.217 66.253,16.869C66.601,17.521 66.774,18.301 66.774,19.209C66.774,20.116 66.601,20.896 66.255,21.549C65.908,22.202 65.414,22.702 64.772,23.051C64.13,23.4 63.366,23.574 62.479,23.574ZM61.335,14.843L61.335,23.574L59.269,23.574L59.269,14.843L61.335,14.843Z" style="fill-rule:nonzero;"/>
        </g>
        <g transform="matrix(1,0,0,1,0.750982,0.616712)">
            <path d="M9.37,32.433L93.725,32.433L93.725,53.748L81.915,53.748L83.636,63.608L78.345,69.302L66.253,69.302L59.629,77.155L42.409,77.155L37.317,70.207L24.744,70.207L19.04,63.267L21.587,53.845L9.2,53.583L9.37,32.433Z" style="fill:none;stroke:black;stroke-width:2px;"/>
        </g>
    </g>
</svg>
